<svg xmlns="http://www.w3.org/2000/svg" viewBox="0 0 64 64">
  <defs>
    <linearGradient id="bg" x1="0" y1="0" x2="1" y2="1">
      <stop offset="0%" stop-color="#7dd3fc"/>
      <stop offset="100%" stop-color="#0369a1"/>
    </linearGradient>
    <radialGradient id="sunFill" cx="45%" cy="40%" r="60%">
      <stop offset="0%" stop-color="#fff9c4"/>
      <stop offset="50%" stop-color="#fcd34d"/>
      <stop offset="100%" stop-color="#f59e0b"/>
    </radialGradient>
    <radialGradient id="lensFill" cx="35%" cy="30%" r="70%">
      <stop offset="0%" stop-color="#60a5fa"/>
      <stop offset="60%" stop-color="#1d4ed8"/>
      <stop offset="100%" stop-color="#0f172a"/>
    </radialGradient>
  </defs>
  <rect width="64" height="64" rx="14" fill="url(#bg)"/>
  <circle cx="32" cy="25" r="20" fill="#fbbf24" opacity="0.18"/>
  <g transform="translate(32,25)" fill="#fde68a">
    <rect x="-2" y="-22" width="4" height="7" rx="2"/>
    <rect x="-2" y="-22" width="4" height="7" rx="2" transform="rotate(45)"/>
    <rect x="-2" y="-22" width="4" height="7" rx="2" transform="rotate(90)"/>
    <rect x="-2" y="-22" width="4" height="7" rx="2" transform="rotate(135)"/>
    <rect x="-2" y="-22" width="4" height="7" rx="2" transform="rotate(180)"/>
    <rect x="-2" y="-22" width="4" height="7" rx="2" transform="rotate(225)"/>
    <rect x="-2" y="-22" width="4" height="7" rx="2" transform="rotate(270)"/>
    <rect x="-2" y="-22" width="4" height="7" rx="2" transform="rotate(315)"/>
  </g>
  <circle cx="32" cy="25" r="13" fill="url(#sunFill)"/>
  <rect x="17" y="36" width="30" height="19" rx="4" fill="#1e293b"/>
  <rect x="25" y="31" width="14" height="7" rx="3" fill="#1e293b"/>
  <circle cx="32" cy="45" r="8" fill="#0f172a"/>
  <circle cx="32" cy="45" r="7" fill="#475569"/>
  <circle cx="32" cy="45" r="5.5" fill="url(#lensFill)"/>
  <ellipse cx="30" cy="43" rx="2" ry="1.3" fill="white" opacity="0.30" transform="rotate(-30,30,43)"/>
  <circle cx="41" cy="39" r="2" fill="#ef4444" opacity="0.35"/>
  <circle cx="41" cy="39" r="1.4" fill="#ef4444"/>
</svg>
